# xmcd
# 
# Track frame offsets:
#     150
#     17100
#     39953
#     52463
#     69696
#     99351
#     112947
#     132200
#     157368
#     178167
#     197422
#     221234
# 
# Disc length: 3299
# 
# Revision: 1
# Processed by: cddbd v1.5.2PL0 Copyright (c) Steve Scherf et al.
# Submitted via: BonkEnc v1.0.8
# 
DISCID=b20ce10c
DTITLE=Simon Spang-Hanssen - Long Shadows
DYEAR=2000
DGENRE=Contemporary Jazz
TTITLE0=Take It Easy
TTITLE1=I Get So Happy, When The Sun Shines
TTITLE2=Elaphant's Lullaby
TTITLE3=Two People That Met
TTITLE4=Apple Walk
TTITLE5=Je me suis fait tout petit
TTITLE6=24 Hours
TTITLE7=Long Shadows
TTITLE8=The Melody That Got Lost
TTITLE9=The Beer-Dog
TTITLE10=You Don't Know What Love Is
TTITLE11=Comme Une Chanson
EXTD=YEAR: 2000
EXTT0=
EXTT1=
EXTT2=
EXTT3=
EXTT4=
EXTT5=
EXTT6=
EXTT7=
EXTT8=
EXTT9=
EXTT10=
EXTT11=
PLAYORDER=
